<svg xmlns="http://www.w3.org/2000/svg" viewBox="0 0 160 160">
  <defs>
    <linearGradient id="jam" x1="0" y1="0" x2="1" y2="0">
      <stop offset="0" stop-color="#ef6b86"/>
      <stop offset=".55" stop-color="#d94a68"/>
      <stop offset="1" stop-color="#b53350"/>
    </linearGradient>
    <linearGradient id="glass2" x1="0" y1="0" x2="1" y2="0">
      <stop offset="0" stop-color="#ffffff" stop-opacity=".5"/>
      <stop offset=".35" stop-color="#ffffff" stop-opacity=".05"/>
      <stop offset="1" stop-color="#ffffff" stop-opacity=".22"/>
    </linearGradient>
    <linearGradient id="cloth" x1="0" y1="0" x2="0" y2="1">
      <stop offset="0" stop-color="#ffffff"/>
      <stop offset="1" stop-color="#f1d9de"/>
    </linearGradient>
    <pattern id="check" width="12" height="12" patternUnits="userSpaceOnUse">
      <rect width="6" height="6" fill="#e9808f" opacity=".55"/>
      <rect x="6" y="6" width="6" height="6" fill="#e9808f" opacity=".55"/>
    </pattern>
  </defs>
  <ellipse cx="80" cy="146" rx="44" ry="8" fill="#5a3d28" opacity=".14"/>
  <!-- 罐身 -->
  <path d="M42 62 Q42 50 54 50 L106 50 Q118 50 118 62 L118 126 Q118 140 104 140 L56 140 Q42 140 42 126 Z" fill="url(#jam)"/>
  <path d="M42 66 Q80 78 118 66 L118 62 Q118 50 106 50 L54 50 Q42 50 42 62 Z" fill="#f28aa0"/>
  <path d="M42 62 Q42 50 54 50 L106 50 Q118 50 118 62 L118 126 Q118 140 104 140 L56 140 Q42 140 42 126 Z" fill="url(#glass2)"/>
  <path d="M52 70 Q50 100 54 128" fill="none" stroke="#ffffff" stroke-width="7" stroke-linecap="round" opacity=".5"/>
  <!-- 標籤＋草莓 -->
  <rect x="56" y="86" width="48" height="32" rx="7" fill="#fff7ee"/>
  <path d="M80 112 C70 108 66 100 70 96 C74 92 79 94 80 97 C81 94 86 92 90 96 C94 100 90 108 80 112 Z" fill="#e0405f"/>
  <path d="M76 94 L80 88 L84 94 Z" fill="#6cae4f"/>
  <circle cx="76" cy="101" r="1.4" fill="#ffe0b0"/><circle cx="84" cy="101" r="1.4" fill="#ffe0b0"/><circle cx="80" cy="106" r="1.4" fill="#ffe0b0"/>
  <!-- 布蓋 -->
  <path d="M38 44 Q80 22 122 44 L118 58 Q80 48 42 58 Z" fill="url(#cloth)"/>
  <path d="M38 44 Q80 22 122 44 L118 58 Q80 48 42 58 Z" fill="url(#check)"/>
  <path d="M44 56 Q80 46 116 56" fill="none" stroke="#b53350" stroke-width="3" stroke-linecap="round"/>
</svg>
