<svg xmlns="http://www.w3.org/2000/svg" viewBox="0 0 160 160">
  <!-- 爐台（D57）：奶油色爐身＋兩個爐口，上面一只薄荷色小鍋冒熱氣（對應 scene/bakery 的 stove） -->
  <ellipse cx="80" cy="146" rx="52" ry="8" fill="#5a3d28" opacity=".14"/>
  <rect x="26" y="78" width="108" height="62" rx="12" fill="#fff4e0" stroke="#e8cfa8" stroke-width="3"/>
  <rect x="34" y="96" width="92" height="32" rx="8" fill="#f28ea6"/>
  <circle cx="58" cy="112" r="7" fill="#fff8ee"/>
  <circle cx="102" cy="112" r="7" fill="#fff8ee"/>
  <rect x="26" y="70" width="108" height="14" rx="6" fill="#b98059"/>
  <ellipse cx="58" cy="72" rx="18" ry="4" fill="#5a4a5f" opacity=".5"/>
  <!-- 鍋 -->
  <path d="M42 44 h56 v18 a10 10 0 0 1 -10 10 h-36 a10 10 0 0 1 -10 -10 Z" fill="#86d0b6"/>
  <rect x="38" y="40" width="64" height="8" rx="4" fill="#6fbfa5"/>
  <rect x="100" y="46" width="22" height="6" rx="3" fill="#6fbfa5"/>
  <!-- 熱氣 -->
  <path d="M58 32 q-6 -8 0 -14 q6 -6 0 -12" fill="none" stroke="#f2c25c" stroke-width="4" stroke-linecap="round"/>
  <path d="M78 32 q-6 -8 0 -14 q6 -6 0 -12" fill="none" stroke="#f2c25c" stroke-width="4" stroke-linecap="round"/>
</svg>
